<mxfile host="app.diagrams.net" modified="2023-05-26T23:22:06.072Z" agent="Mozilla/5.0 (Windows NT 10.0; Win64; x64) AppleWebKit/537.36 (KHTML, like Gecko) Chrome/113.0.0.0 Safari/537.36" etag="vGwLsLEwazxo70q3y8bM" version="21.3.4" type="github">
  <diagram id="C5RBs43oDa-KdzZeNtuy" name="Page-1">
    <mxGraphModel dx="868" dy="739" grid="1" gridSize="10" guides="1" tooltips="1" connect="1" arrows="1" fold="1" page="1" pageScale="1" pageWidth="827" pageHeight="1169" math="0" shadow="0">
      <root>
        <mxCell id="WIyWlLk6GJQsqaUBKTNV-0" />
        <mxCell id="WIyWlLk6GJQsqaUBKTNV-1" parent="WIyWlLk6GJQsqaUBKTNV-0" />
        <mxCell id="T_qVZ5hJeyGaSpDdnf8M-0" value="&lt;font color=&quot;#203850&quot;&gt;&lt;span style=&quot;font-weight: 400;&quot;&gt;Lecturer Researcher&lt;br&gt;&lt;/span&gt;&lt;/font&gt;" style="swimlane;horizontal=0;whiteSpace=wrap;html=1;strokeColor=#E66418;startSize=36;" vertex="1" parent="WIyWlLk6GJQsqaUBKTNV-1">
          <mxGeometry x="34" y="20" width="780" height="100" as="geometry">
            <mxRectangle x="100" y="10" width="40" height="150" as="alternateBounds" />
          </mxGeometry>
        </mxCell>
        <mxCell id="T_qVZ5hJeyGaSpDdnf8M-3" value="Research Profile" style="edgeStyle=orthogonalEdgeStyle;rounded=0;orthogonalLoop=1;jettySize=auto;html=1;entryX=0;entryY=0.5;entryDx=0;entryDy=0;" edge="1" parent="T_qVZ5hJeyGaSpDdnf8M-0" source="T_qVZ5hJeyGaSpDdnf8M-1" target="T_qVZ5hJeyGaSpDdnf8M-2">
          <mxGeometry relative="1" as="geometry" />
        </mxCell>
        <mxCell id="T_qVZ5hJeyGaSpDdnf8M-1" value="&lt;font color=&quot;#203850&quot;&gt;Create Research Profile&lt;/font&gt;" style="rounded=0;whiteSpace=wrap;html=1;fillColor=#d5e8d4;strokeColor=#82b366;" vertex="1" parent="T_qVZ5hJeyGaSpDdnf8M-0">
          <mxGeometry x="46" y="20" width="120" height="60" as="geometry" />
        </mxCell>
        <mxCell id="T_qVZ5hJeyGaSpDdnf8M-2" value="&lt;font color=&quot;#203850&quot;&gt;Manage Research Profile&lt;/font&gt;" style="rounded=0;whiteSpace=wrap;html=1;fillColor=#d5e8d4;strokeColor=#82b366;" vertex="1" parent="T_qVZ5hJeyGaSpDdnf8M-0">
          <mxGeometry x="446" y="20" width="120" height="60" as="geometry" />
        </mxCell>
      </root>
    </mxGraphModel>
  </diagram>
</mxfile>
